<?xml version="1.0" standalone="no"?>
<!DOCTYPE svg PUBLIC "-//W3C//DTD SVG 20010904//EN"
 "http://www.w3.org/TR/2001/REC-SVG-20010904/DTD/svg10.dtd">
<svg version="1.0" xmlns="http://www.w3.org/2000/svg"
 width="545.000000pt" height="545.000000pt" viewBox="0 0 545.000000 545.000000"
 preserveAspectRatio="xMidYMid meet">
<metadata>
Created by potrace 1.11, written by Peter Selinger 2001-2013
</metadata>
<g transform="translate(0.000000,545.000000) scale(0.100000,-0.100000)"
fill="#000000" stroke="none">
<path d="M310 2667 l0 -2017 253 0 252 0 123 123 122 122 0 1520 0 1520 -375
375 -375 375 0 -2018z"/>
<path d="M2379 4343 c189 -186 347 -338 351 -338 4 0 162 152 351 338 l343
337 -694 0 -695 0 344 -337z"/>
<path d="M4772 4307 l-372 -372 2 -1640 3 -1640 373 -3 372 -2 0 2015 c0 1108
-1 2015 -3 2015 -1 0 -170 -168 -375 -373z"/>
<path d="M1330 2480 l0 -1165 375 375 375 375 0 419 0 419 -63 61 c-34 34
-203 200 -375 371 l-312 310 0 -1165z"/>
<path d="M3752 3122 l-373 -367 3 -1050 3 -1050 373 -3 372 -2 0 1420 c0 781
-1 1420 -2 1420 -2 -1 -171 -166 -376 -368z"/>
<path d="M2350 2533 l0 -228 115 115 115 115 -112 112 c-62 62 -114 113 -115
113 -2 0 -3 -102 -3 -227z"/>
<path d="M2734 2268 l-371 -373 1 -615 1 -615 373 -3 372 -2 0 990 c0 544 -1
990 -3 990 -1 0 -169 -168 -373 -372z"/>
<path d="M1595 1140 l-490 -490 493 0 492 0 0 490 c0 270 -1 490 -3 490 -1 0
-223 -220 -492 -490z"/>
</g>
</svg>
